# xmcd
#
# Track frame offsets:
#	150
#	11913
#	25265
#	41263
#	60918
#	74924
#	96717
#	107575
#	122722
#	143359
#	159995
#	173156
#
# Disc length: 2636 seconds
#
# Revision: 0
# Processed by: cddbd v1.4PL0 Copyright (c) Steve Scherf et al.
# Submitted via: EasyCDDAExtractor 4.6.0.1
#
DISCID=9d0a4a0c
DTITLE=Big Bad Smitty - Cold Blood
DYEAR=1993
DGENRE=blues
TTITLE0=Don't Mess With My Wife
TTITLE1=Three Hundred Pounds of Joy
TTITLE2=Mystery Train
TTITLE3=I Asked For Water
TTITLE4=Big Brazos
TTITLE5=Last Night
TTITLE6=Rooster Blues
TTITLE7=Forty Four Blues
TTITLE8=Ship Made Of Paper (Just to be with you)
TTITLE9=Killing Floor
TTITLE10=Cry For Me Baby
TTITLE11=Mannish Boy
EXTD=
EXTT0=
EXTT1=
EXTT2=
EXTT3=
EXTT4=
EXTT5=
EXTT6=
EXTT7=
EXTT8=
EXTT9=
EXTT10=
EXTT11=
PLAYORDER=
